{"title":"Cat Run-720p MP4 AAC x264 BRRip 2011-CC","uid":7763004,"size":2733229294,"categoryP":"video","categoryS":"hd___movies","magnet":"?xt=urn:btih:7d731f47980541b0846405c54a6ba83322e01731&amp;dn=Cat+Run-720p+MP4+AAC+x264+BRRip+2011-CC&amp;tr=udp%3A%2F%2Ftracker.openbittorrent.com%3A80&amp;tr=udp%3A%2F%2Fopen.demonii.com%3A1337&amp;tr=udp%3A%2F%2Ftracker.coppersurfer.tk%3A6969&amp;tr=udp%3A%2F%2Fexodus.desync.com%3A6969","seeders":0,"leechers":1,"uploader":"Caveman44","files":29,"time":1351285066,"description":" &lt;a href=&quot;http://www.imdb.com/title/tt1446147/&quot; rel=&quot;nofollow&quot; target=&quot;_NEW&quot;&gt;http://www.imdb.com/title/tt1446147/&lt;/a&gt;\n\nSource: Cat.Run.2011.720p.BluRay.x264-NOSCREENS Thanks!\n\nSubs: Arabic, Brazilian, Danish, Dutch, English, Farsi-Persian, French, Italian, Norwegian, Portuguese, Swedish and Vietnamese.\n\nSample and Screens included.\n\nGeneral\nComplete name                            : Cat Run-720p MP4 AAC x264 BRRip 2011-CC.mp4\nFormat                                   : MPEG-4\nFormat profile                           : Base Media\nCodec ID                                 : isom\nFile size                                : 2.52 GiB\nDuration                                 : 1h 46mn\nOverall bit rate mode                    : Variable\nOverall bit rate                         : 3 398 Kbps\nEncoded date                             : UTC 2012-10-23 17:00:22\n\nVideo\nID                                       : 1\nFormat                                   : AVC\nFormat/Info                              : Advanced Video Codec\nFormat profile                           : &lt;a class=&quot;__cf_email__&quot; href=&quot;/cdn-cgi/l/email-protection&quot; data-cfemail=&quot;622a0b050a222e564c53&quot;&gt;[email&amp;#160;protected]&lt;/a&gt;&lt;script cf-hash='f9e31' type=&quot;text/javascript&quot;&gt;\n/* &lt;![CDATA[ */!function(){try{var t=&quot;currentScript&quot;in document?document.currentScript:function(){for(var t=document.getElementsByTagName(&quot;script&quot;),e=t.length;e--;)if(t[e].getAttribute(&quot;cf-hash&quot;))return t[e]}();if(t&amp;&amp;t.previousSibling){var e,r,n,i,c=t.previousSibling,a=c.getAttribute(&quot;data-cfemail&quot;);if(a){for(e=&quot;&quot;,r=parseInt(a.substr(0,2),16),n=2;a.length-n;n+=2)i=parseInt(a.substr(n,2),16)^r,e+=String.fromCharCode(i);e=document.createTextNode(e),c.parentNode.replaceChild(e,c)}}}catch(u){}}();/* ]]&gt; */&lt;/script&gt;\nFormat settings, CABAC                   : Yes\nFormat settings, ReFrames                : 5 frames\nCodec ID                                 : avc1\nCodec ID/Info                            : Advanced Video Coding\nDuration                                 : 1h 46mn\nBit rate                                 : 3 090 Kbps\nMaximum bit rate                         : 17.7 Mbps\nWidth                                    : 1 280 pixels\nHeight                                   : 544 pixels\nDisplay aspect ratio                     : 2.35:1\nFrame rate mode                          : Variable\nFrame rate                               : 23.976 fps\nMinimum frame rate                       : 19.048 fps\nMaximum frame rate                       : 24.390 fps\nColor space                              : YUV\nChroma subsampling                       : 4:2:0\nBit depth                                : 8 bits\nScan type                                : Progressive\nBits/(Pixel*Frame)                       : 0.185\nStream size                              : 2.23 GiB (89%)\nWriting library                          : x264 core 112\n\nAudio\nID                                       : 2\nFormat                                   : AAC\nFormat/Info                              : Advanced Audio Codec\nFormat profile                           : LC\nCodec ID                                 : 40\nDuration                                 : 1h 46mn\nBit rate mode                            : Variable\nBit rate                                 : 384 Kbps\nMaximum bit rate                         : 708 Kbps\nChannel(s)                               : 6 channels\nChannel positions                        : Front: L C R, Side: L R, LFE\nSampling rate                            : 48.0 KHz\nCompression mode                         : Lossy\nDelay relative to video                  : 83ms\nStream size                              : 291 MiB (11%)\nLanguage                                 : English\n\nEnjoy..\n\nRequested by aartje80\n\nComing up: Sixteen Candles, Sunset Blvd, The Horse Whisperer and more..","torrent":{"xt":"urn:btih:7d731f47980541b0846405c54a6ba83322e01731","amp;dn":"Cat+Run-720p+MP4+AAC+x264+BRRip+2011-CC","amp;tr":["udp%3A%2F%2Ftracker.openbittorrent.com%3A80","udp%3A%2F%2Fopen.demonii.com%3A1337","udp%3A%2F%2Ftracker.coppersurfer.tk%3A6969","udp%3A%2F%2Fexodus.desync.com%3A6969"],"infoHash":"7d731f47980541b0846405c54a6ba83322e01731","infoHashBuffer":{"type":"Buffer","data":[125,115,31,71,152,5,65,176,132,100,5,197,74,107,168,51,34,224,23,49]},"announce":[],"urlList":[]}}